<svg width="160" height="25" viewBox="0 0 160 25" fill="none" xmlns="http://www.w3.org/2000/svg">
    <mask id="path-1-outside-1_1955_3402" maskUnits="userSpaceOnUse" x="0" y="0" width="160" height="25" fill="black">
        <rect fill="white" width="160" height="25"/>
        <path d="M17.79 2C22.56 2 25.83 5.03 25.83 9.71C25.83 14.39 22.56 17.39 17.79 17.39H6.69V23H1.29V2H17.79ZM16.29 12.86C17.91 12.86 20.43 12.86 20.43 9.71C20.43 6.53 17.91 6.53 16.29 6.53H6.69V12.86H16.29ZM33.1744 2V23H27.7744V2H33.1744ZM34.9744 12.47C34.9744 5.51 38.9344 1.7 48.1744 1.7C56.5444 1.7 60.7444 4.88 61.2844 10.94H55.7944C55.2844 7.55 52.6744 6.23 48.1744 6.23C42.6844 6.23 40.3744 8.18 40.3744 12.47C40.3744 16.79 42.7144 18.77 48.1744 18.77C52.6444 18.77 55.2844 17.42 55.7944 14H61.2844C60.7444 20.09 56.5444 23.3 48.1744 23.3C38.9344 23.3 34.9744 19.46 34.9744 12.47ZM91.8129 2L79.0929 11.33L91.8129 23H84.3429L75.1029 14.27L68.6529 18.98V23H63.2529V2H68.6529V12.89L83.6229 2H91.8129ZM133.973 2V23H128.573V8.6L119.843 23H115.943L107.213 8.6V23H101.813V2H109.103L117.893 16.82L126.683 2H133.973ZM158.584 6.29H141.784V10.55H158.584V14.45H141.784V18.71H158.584V23H136.384V2H158.584V6.29Z"/>
    </mask>
    <path d="M17.79 2C22.56 2 25.83 5.03 25.83 9.71C25.83 14.39 22.56 17.39 17.79 17.39H6.69V23H1.29V2H17.79ZM16.29 12.86C17.91 12.86 20.43 12.86 20.43 9.71C20.43 6.53 17.91 6.53 16.29 6.53H6.69V12.86H16.29ZM33.1744 2V23H27.7744V2H33.1744ZM34.9744 12.47C34.9744 5.51 38.9344 1.7 48.1744 1.7C56.5444 1.7 60.7444 4.88 61.2844 10.94H55.7944C55.2844 7.55 52.6744 6.23 48.1744 6.23C42.6844 6.23 40.3744 8.18 40.3744 12.47C40.3744 16.79 42.7144 18.77 48.1744 18.77C52.6444 18.77 55.2844 17.42 55.7944 14H61.2844C60.7444 20.09 56.5444 23.3 48.1744 23.3C38.9344 23.3 34.9744 19.46 34.9744 12.47ZM91.8129 2L79.0929 11.33L91.8129 23H84.3429L75.1029 14.27L68.6529 18.98V23H63.2529V2H68.6529V12.89L83.6229 2H91.8129ZM133.973 2V23H128.573V8.6L119.843 23H115.943L107.213 8.6V23H101.813V2H109.103L117.893 16.82L126.683 2H133.973ZM158.584 6.29H141.784V10.55H158.584V14.45H141.784V18.71H158.584V23H136.384V2H158.584V6.29Z" fill="white" fill-opacity="0.15"/>
    <path d="M6.69 17.39V16.39H5.69V17.39H6.69ZM6.69 23V24H7.69V23H6.69ZM1.29 23H0.29V24H1.29V23ZM1.29 2V0.999999H0.29V2H1.29ZM6.69 6.53V5.53H5.69V6.53H6.69ZM6.69 12.86H5.69V13.86H6.69V12.86ZM17.79 2V3C19.9625 3 21.7117 3.68709 22.9102 4.82514C24.1033 5.95812 24.83 7.61257 24.83 9.71H25.83H26.83C26.83 7.12743 25.9217 4.92687 24.2873 3.37486C22.6583 1.82791 20.3875 0.999999 17.79 0.999999V2ZM25.83 9.71H24.83C24.83 11.807 24.1036 13.4529 22.9122 14.5779C21.7147 15.7087 19.9652 16.39 17.79 16.39V17.39V18.39C20.3848 18.39 22.6553 17.5713 24.2853 16.0321C25.9214 14.4871 26.83 12.293 26.83 9.71H25.83ZM17.79 17.39V16.39H6.69V17.39V18.39H17.79V17.39ZM6.69 17.39H5.69V23H6.69H7.69V17.39H6.69ZM6.69 23V22H1.29V23V24H6.69V23ZM1.29 23H2.29V2H1.29H0.29V23H1.29ZM1.29 2V3H17.79V2V0.999999H1.29V2ZM16.29 12.86V13.86C17.0504 13.86 18.3233 13.8771 19.3951 13.3702C19.9637 13.1013 20.4939 12.68 20.872 12.0395C21.2457 11.4067 21.43 10.6295 21.43 9.71H20.43H19.43C19.43 10.3655 19.2993 10.7696 19.1498 11.0226C19.0049 11.2682 18.8038 11.4375 18.5399 11.5623C17.9467 11.8429 17.1496 11.86 16.29 11.86V12.86ZM20.43 9.71H21.43C21.43 8.7845 21.2463 8.00304 20.8741 7.36668C20.4972 6.72232 19.968 6.29706 19.3984 6.02509C18.3251 5.51262 17.0502 5.53 16.29 5.53V6.53V7.53C17.1498 7.53 17.9449 7.54737 18.5366 7.82991C18.7995 7.95544 19.0015 8.12643 19.1478 8.37645C19.2987 8.63446 19.43 9.0455 19.43 9.71H20.43ZM16.29 6.53V5.53H6.69V6.53V7.53H16.29V6.53ZM6.69 6.53H5.69V12.86H6.69H7.69V6.53H6.69ZM6.69 12.86V13.86H16.29V12.86V11.86H6.69V12.86ZM33.1744 2H34.1744V0.999999H33.1744V2ZM33.1744 23V24H34.1744V23H33.1744ZM27.7744 23H26.7744V24H27.7744V23ZM27.7744 2V0.999999H26.7744V2H27.7744ZM33.1744 2H32.1744V23H33.1744H34.1744V2H33.1744ZM33.1744 23V22H27.7744V23V24H33.1744V23ZM27.7744 23H28.7744V2H27.7744H26.7744V23H27.7744ZM27.7744 2V3H33.1744V2V0.999999H27.7744V2ZM61.2844 10.94V11.94H62.3774L62.2804 10.8512L61.2844 10.94ZM55.7944 10.94L54.8055 11.0888L54.9336 11.94H55.7944V10.94ZM55.7944 14V13H54.9324L54.8053 13.8525L55.7944 14ZM61.2844 14L62.2805 14.0883L62.377 13H61.2844V14ZM34.9744 12.47H35.9744C35.9744 9.18147 36.903 6.81221 38.7569 5.23707C40.6439 3.63378 43.6654 2.7 48.1744 2.7V1.7V0.699999C43.4433 0.699999 39.8649 1.67122 37.4619 3.71293C35.0257 5.78279 33.9744 8.79853 33.9744 12.47H34.9744ZM48.1744 1.7V2.7C52.2544 2.7 55.1574 3.47865 57.0827 4.85999C58.9671 6.21206 60.0391 8.23152 60.2883 11.0288L61.2844 10.94L62.2804 10.8512C61.9897 7.58848 60.6917 4.98794 58.2486 3.235C55.8463 1.51135 52.4643 0.699999 48.1744 0.699999V1.7ZM61.2844 10.94V9.94H55.7944V10.94V11.94H61.2844V10.94ZM55.7944 10.94L56.7832 10.7912C56.4883 8.83055 55.5535 7.37481 53.9884 6.45227C52.4838 5.5654 50.4951 5.23 48.1744 5.23V6.23V7.23C50.3537 7.23 51.9199 7.5546 52.9728 8.17523C53.9652 8.76018 54.5905 9.65944 54.8055 11.0888L55.7944 10.94ZM48.1744 6.23V5.23C45.3486 5.23 43.1166 5.72446 41.5862 6.96422C40.0061 8.2442 39.3744 10.1475 39.3744 12.47H40.3744H41.3744C41.3744 10.5025 41.8976 9.2858 42.8451 8.51828C43.8422 7.71054 45.5101 7.23 48.1744 7.23V6.23ZM40.3744 12.47H39.3744C39.3744 14.8088 40.0142 16.7243 41.5944 18.0146C43.1276 19.2666 45.3596 19.77 48.1744 19.77V18.77V17.77C45.5292 17.77 43.8611 17.2834 42.8594 16.4654C41.9045 15.6857 41.3744 14.4512 41.3744 12.47H40.3744ZM48.1744 18.77V19.77C50.4841 19.77 52.4735 19.4259 53.9817 18.5263C55.5476 17.5923 56.4889 16.123 56.7834 14.1475L55.7944 14L54.8053 13.8525C54.5899 15.297 53.9562 16.2127 52.9571 16.8087C51.9003 17.4391 50.3347 17.77 48.1744 17.77V18.77ZM55.7944 14V15H61.2844V14V13H55.7944V14ZM61.2844 14L60.2883 13.9117C60.0388 16.7258 58.9652 18.7607 57.0799 20.1233C55.1549 21.5144 52.2529 22.3 48.1744 22.3V23.3V24.3C52.4659 24.3 55.8489 23.4806 58.2514 21.7442C60.6935 19.9793 61.99 17.3642 62.2805 14.0883L61.2844 14ZM48.1744 23.3V22.3C43.667 22.3 40.6462 21.3594 38.7592 19.7461C36.9039 18.1601 35.9744 15.7749 35.9744 12.47H34.9744H33.9744C33.9744 16.1551 35.0248 19.1849 37.4596 21.2663C39.8625 23.3206 43.4418 24.3 48.1744 24.3V23.3ZM91.8129 2L92.4043 2.80634L94.867 0.999999H91.8129V2ZM79.0929 11.33L78.5014 10.5237L77.5197 11.2438L78.4169 12.0669L79.0929 11.33ZM91.8129 23V24H94.3821L92.4889 22.2631L91.8129 23ZM84.3429 23L83.6561 23.7269L83.9452 24H84.3429V23ZM75.1029 14.27L75.7896 13.5431L75.185 12.9718L74.5132 13.4624L75.1029 14.27ZM68.6529 18.98L68.0632 18.1724L67.6529 18.472V18.98H68.6529ZM68.6529 23V24H69.6529V23H68.6529ZM63.2529 23H62.2529V24H63.2529V23ZM63.2529 2V0.999999H62.2529V2H63.2529ZM68.6529 2H69.6529V0.999999H68.6529V2ZM68.6529 12.89H67.6529V14.8541L69.2412 13.6987L68.6529 12.89ZM83.6229 2V0.999999H83.2976L83.0346 1.19133L83.6229 2ZM91.8129 2L91.2214 1.19365L78.5014 10.5237L79.0929 11.33L79.6843 12.1363L92.4043 2.80634L91.8129 2ZM79.0929 11.33L78.4169 12.0669L91.1369 23.7369L91.8129 23L92.4889 22.2631L79.7689 10.5931L79.0929 11.33ZM91.8129 23V22H84.3429V23V24H91.8129V23ZM84.3429 23L85.0297 22.2731L75.7896 13.5431L75.1029 14.27L74.4161 14.9969L83.6561 23.7269L84.3429 23ZM75.1029 14.27L74.5132 13.4624L68.0632 18.1724L68.6529 18.98L69.2426 19.7876L75.6926 15.0776L75.1029 14.27ZM68.6529 18.98H67.6529V23H68.6529H69.6529V18.98H68.6529ZM68.6529 23V22H63.2529V23V24H68.6529V23ZM63.2529 23H64.2529V2H63.2529H62.2529V23H63.2529ZM63.2529 2V3H68.6529V2V0.999999H63.2529V2ZM68.6529 2H67.6529V12.89H68.6529H69.6529V2H68.6529ZM68.6529 12.89L69.2412 13.6987L84.2112 2.80866L83.6229 2L83.0346 1.19133L68.0646 12.0813L68.6529 12.89ZM83.6229 2V3H91.8129V2V0.999999H83.6229V2ZM133.973 2H134.973V0.999999H133.973V2ZM133.973 23V24H134.973V23H133.973ZM128.573 23H127.573V24H128.573V23ZM128.573 8.6H129.573V5.02158L127.718 8.08158L128.573 8.6ZM119.843 23V24H120.407L120.699 23.5184L119.843 23ZM115.943 23L115.088 23.5184L115.38 24H115.943V23ZM107.213 8.6L108.069 8.08158L106.213 5.02158V8.6H107.213ZM107.213 23V24H108.213V23H107.213ZM101.813 23H100.813V24H101.813V23ZM101.813 2V0.999999H100.813V2H101.813ZM109.103 2L109.964 1.48986L109.673 0.999999H109.103V2ZM117.893 16.82L117.033 17.3301L117.893 18.7803L118.754 17.3301L117.893 16.82ZM126.683 2V0.999999H126.114L125.823 1.48986L126.683 2ZM133.973 2H132.973V23H133.973H134.973V2H133.973ZM133.973 23V22H128.573V23V24H133.973V23ZM128.573 23H129.573V8.6H128.573H127.573V23H128.573ZM128.573 8.6L127.718 8.08158L118.988 22.4816L119.843 23L120.699 23.5184L129.429 9.11842L128.573 8.6ZM119.843 23V22H115.943V23V24H119.843V23ZM115.943 23L116.799 22.4816L108.069 8.08158L107.213 8.6L106.358 9.11842L115.088 23.5184L115.943 23ZM107.213 8.6H106.213V23H107.213H108.213V8.6H107.213ZM107.213 23V22H101.813V23V24H107.213V23ZM101.813 23H102.813V2H101.813H100.813V23H101.813ZM101.813 2V3H109.103V2V0.999999H101.813V2ZM109.103 2L108.243 2.51014L117.033 17.3301L117.893 16.82L118.754 16.3099L109.964 1.48986L109.103 2ZM117.893 16.82L118.754 17.3301L127.544 2.51014L126.683 2L125.823 1.48986L117.033 16.3099L117.893 16.82ZM126.683 2V3H133.973V2V0.999999H126.683V2ZM158.584 6.29V7.29H159.584V6.29H158.584ZM141.784 6.29V5.29H140.784V6.29H141.784ZM141.784 10.55H140.784V11.55H141.784V10.55ZM158.584 10.55H159.584V9.55H158.584V10.55ZM158.584 14.45V15.45H159.584V14.45H158.584ZM141.784 14.45V13.45H140.784V14.45H141.784ZM141.784 18.71H140.784V19.71H141.784V18.71ZM158.584 18.71H159.584V17.71H158.584V18.71ZM158.584 23V24H159.584V23H158.584ZM136.384 23H135.384V24H136.384V23ZM136.384 2V0.999999H135.384V2H136.384ZM158.584 2H159.584V0.999999H158.584V2ZM158.584 6.29V5.29H141.784V6.29V7.29H158.584V6.29ZM141.784 6.29H140.784V10.55H141.784H142.784V6.29H141.784ZM141.784 10.55V11.55H158.584V10.55V9.55H141.784V10.55ZM158.584 10.55H157.584V14.45H158.584H159.584V10.55H158.584ZM158.584 14.45V13.45H141.784V14.45V15.45H158.584V14.45ZM141.784 14.45H140.784V18.71H141.784H142.784V14.45H141.784ZM141.784 18.71V19.71H158.584V18.71V17.71H141.784V18.71ZM158.584 18.71H157.584V23H158.584H159.584V18.71H158.584ZM158.584 23V22H136.384V23V24H158.584V23ZM136.384 23H137.384V2H136.384H135.384V23H136.384ZM136.384 2V3H158.584V2V0.999999H136.384V2ZM158.584 2H157.584V6.29H158.584H159.584V2H158.584Z" fill="black" mask="url(#path-1-outside-1_1955_3402)"/>
</svg>
